<svg version="1.1" xmlns="http://www.w3.org/2000/svg" viewBox="-324.6080009460449 -3536.3841644287104 5284.86435546875 5039.104217529296"><desc>Created with Snap</desc><defs></defs><g><g transform="matrix(43.2511,0,0,43.2511,1279.7979,-3237.8346)"><g><path d="M0,39.7c0,4.2,3.3,7.7,7.4,8.1c0.1,0,39.6,0,39.6,0c0.6,0,1-0.4,1-1s-0.4-1-1-1c-3.4,0-6.1-2.7-6.1-6.1   c0-3.4,2.7-6.1,6.1-6.1c0.6,0,1-0.4,1-1s-0.4-1-1-1H28.9c2.7-1.8,5.1-5.9,6.1-10c0.9-3.6,0.6-7-0.9-9.2c-1.9-2.9-5.7-3.4-9.1,0.2   c0.1-1,0.3-2.4,1.3-3.6c0.9-1.2,2.4-1.9,4.4-2c0.6,0,1-0.5,0.9-1.1c0-0.6-0.5-1-1.1-0.9c-2.5,0.2-4.5,1.1-5.8,2.7   c-1.1-4.3-5-7.5-9.6-7.5c-0.6,0-1,0.4-1,1c0,5.2,4,9.5,9.1,9.9c-0.1,0.5-0.2,1-0.2,1.4c-3.4-3.5-7.2-3-9.1-0.1   c-1.5,2.2-1.8,5.7-0.9,9.2c1,4.1,3.4,8.2,6.1,10c0,0-11.7,0-11.7,0C3.3,32,0,35.4,0,39.7z M16.1,2.3c3.5,0.5,6.3,3.3,6.8,6.8   C19.4,8.6,16.6,5.8,16.1,2.3z M15,21.1c-0.8-3-0.5-5.9,0.6-7.6c1.5-2.3,4-1.6,6,0.5c1.6,1.6,3.9,0.9,4.8,0c2-2,4.5-2.8,6-0.5   c1.1,1.7,1.4,4.6,0.6,7.6c-1.3,5.2-4.8,9.7-7.2,9.4c-0.2,0-1.3-0.4-1.9-0.4c-0.6,0-1.7,0.4-1.9,0.4C19.8,30.8,16.3,26.3,15,21.1z    M8.6,33.6h33.1c-1.7,1.5-2.8,3.7-2.8,6.1s1.1,4.6,2.8,6.1H8.6V33.6z M6.6,33.8v11.8C4,44.9,2,42.5,2,39.7C2,36.8,4,34.4,6.6,33.8z   " style="" fill="#bb3344"></path></g><desc>Created with Snap</desc><defs></defs></g><g><g transform="matrix(1.024,0,0,-1.024,0,0)"><path d="M494 842Q520 842 538 829Q556 817 556 799Q556 767 536 747Q516 728 479 728Q421 728 391 727Q389 715 373 619Q355 512 351 488L330 357Q308 210 295 111Q316 112 352 112Q405 112 424 98Q443 84 443 56Q443 30 422 12Q402 -6 365 -6Q340 -6 286 -4Q236 -2 220 -2Q157 -2 82 -13Q49 -18 35 -18Q13 -18 -2 -6Q-17 6 -17 29Q-17 65 15 85Q47 105 105 106L152 107L155 129Q179 289 190 355L212 486Q232 602 248 725L164 724Q128 724 114 735Q101 747 101 768Q101 836 199 841Q245 843 311 843L494 842ZM614 -5Q576 -5 560 35Q545 75 545 163Q545 293 582 410Q591 439 611 452Q632 466 669 466Q689 466 697 461Q705 456 705 442Q705 426 690 370Q680 330 674 300Q668 271 664 227Q691 305 728 359Q766 413 805 439Q845 466 880 466Q915 466 929 450Q944 434 944 401Q944 369 925 285Q917 249 914 231Q964 354 1025 410Q1086 466 1139 466Q1204 466 1204 401Q1204 362 1182 260Q1163 173 1163 145Q1163 105 1192 105Q1212 105 1239 129Q1267 154 1313 209Q1325 223 1340 223Q1353 223 1360 211Q1368 199 1368 178Q1368 138 1349 116Q1306 63 1256 29Q1207 -5 1144 -5Q1093 -5 1067 24Q1041 54 1041 110Q1041 138 1055 210Q1068 273 1068 297Q1068 313 1057 313Q1044 313 1020 279Q996 246 972 191Q948 136 933 75Q922 27 907 11Q893 -5 861 -5Q828 -5 811 26Q795 58 795 103Q795 141 805 213Q813 277 813 297Q813 313 802 313Q787 313 764 277Q741 241 719 185Q698 129 685 75Q674 28 659 11Q645 -5 614 -5ZM1410 -5Q1348 -5 1311 40Q1274 85 1274 158Q1274 238 1311 309Q1348 381 1409 424Q1471 468 1540 468Q1562 468 1569 459Q1577 451 1582 429Q1603 433 1626 433Q1675 433 1675 398Q1675 377 1660 298Q1637 183 1637 138Q1637 123 1644 114Q1652 105 1664 105Q1683 105 1710 129Q1737 154 1783 209Q1795 223 1810 223Q1823 223 1830 211Q1838 199 1838 178Q1838 138 1819 116Q1778 65 1732 30Q1686 -5 1643 -5Q1610 -5 1582 17Q1555 40 1541 79Q1489 -5 1410 -5ZM1446 96Q1468 96 1488 122Q1508 148 1517 191L1554 375Q1512 374 1476 343Q1441 313 1420 263Q1399 213 1399 157Q1399 126 1411 111Q1424 96 1446 96ZM2269 221Q2282 221 2289 208Q2297 196 2297 177Q2297 154 2290 141Q2283 128 2268 118Q2182 60 2142 32L2078 -11Q2040 -218 1978 -337Q1917 -455 1822 -455Q1771 -455 1739 -424Q1707 -392 1707 -341Q1707 -270 1763 -189Q1819 -107 1973 12L1979 51Q1962 24 1934 9Q1907 -5 1880 -5Q1818 -5 1781 40Q1744 85 1744 158Q1744 238 1781 309Q1818 381 1879 424Q1941 468 2010 468Q2032 468 2039 459Q2047 451 2052 429Q2071 433 2096 433Q2121 433 2131 425Q2142 418 2142 396Q2142 384 2141 377Q2137 346 2116 220Q2112 196 2107 167Q2103 139 2098 107Q2175 167 2246 213Q2259 221 2269 221ZM1916 96Q1939 96 1960 124Q1981 152 1990 204L2022 375Q1981 374 1946 343Q1911 313 1890 263Q1869 213 1869 157Q1869 126 1881 111Q1894 96 1916 96ZM1833 -358Q1858 -358 1889 -298Q1921 -238 1950 -107Q1873 -173 1839 -226Q1805 -279 1805 -319Q1805 -336 1811 -347Q1818 -358 1833 -358ZM2367 532Q2325 532 2304 551Q2283 571 2283 606Q2283 641 2310 664Q2338 688 2379 688Q2416 688 2439 670Q2462 652 2462 619Q2462 579 2436 555Q2410 532 2367 532ZM2359 -5Q2294 -5 2264 41Q2235 87 2235 163Q2235 208 2246 278Q2258 349 2276 410Q2285 442 2300 454Q2315 466 2348 466Q2399 466 2399 432Q2399 407 2380 316Q2356 206 2356 167Q2356 137 2364 121Q2372 105 2391 105Q2409 105 2436 130Q2463 155 2508 209Q2520 223 2535 223Q2548 223 2555 211Q2563 199 2563 178Q2563 138 2544 116Q2445 -5 2359 -5ZM2553 -5Q2515 -5 2499 35Q2484 75 2484 163Q2484 293 2521 410Q2530 439 2550 452Q2571 466 2608 466Q2628 466 2636 461Q2644 456 2644 442Q2644 426 2629 370Q2619 330 2613 300Q2607 270 2603 226Q2636 312 2677 366Q2718 420 2757 443Q2797 466 2830 466Q2895 466 2895 401Q2895 362 2873 260Q2854 173 2854 145Q2854 105 2883 105Q2903 105 2930 129Q2958 154 3004 209Q3016 223 3031 223Q3044 223 3051 211Q3059 199 3059 178Q3059 138 3040 116Q2997 63 2947 29Q2898 -5 2835 -5Q2784 -5 2758 24Q2732 54 2732 110Q2732 138 2746 210Q2759 273 2759 297Q2759 313 2748 313Q2735 313 2711 279Q2688 246 2663 191Q2639 136 2624 75Q2613 28 2598 11Q2584 -5 2553 -5ZM3101 -5Q3039 -5 3002 40Q2965 85 2965 158Q2965 238 3002 309Q3039 381 3100 424Q3162 468 3231 468Q3253 468 3260 459Q3268 451 3273 429Q3294 433 3317 433Q3366 433 3366 398Q3366 377 3351 298Q3328 183 3328 138Q3328 123 3335 114Q3343 105 3355 105Q3374 105 3401 129Q3428 154 3474 209Q3486 223 3501 223Q3514 223 3521 211Q3529 199 3529 178Q3529 138 3510 116Q3469 65 3423 30Q3377 -5 3334 -5Q3301 -5 3273 17Q3246 40 3232 79Q3180 -5 3101 -5ZM3137 96Q3159 96 3179 122Q3199 148 3208 191L3245 375Q3203 374 3167 343Q3132 313 3111 263Q3090 213 3090 157Q3090 126 3102 111Q3115 96 3137 96ZM3639 -5Q3541 -5 3486 50Q3432 106 3432 197Q3432 278 3464 339Q3496 400 3547 433Q3598 466 3654 466Q3709 466 3739 433Q3770 401 3770 350Q3770 308 3751 279Q3733 250 3703 250Q3684 250 3672 259Q3661 268 3661 284Q3661 291 3663 300Q3665 309 3666 313Q3671 328 3671 341Q3671 354 3664 361Q3658 368 3646 368Q3623 368 3603 347Q3583 327 3571 292Q3559 257 3559 215Q3559 99 3660 99Q3701 99 3748 126Q3796 154 3842 209Q3854 223 3869 223Q3882 223 3889 211Q3897 199 3897 178Q3897 140 3878 116Q3831 58 3765 26Q3700 -5 3639 -5ZM3923 532Q3881 532 3860 551Q3839 571 3839 606Q3839 641 3866 664Q3894 688 3935 688Q3972 688 3995 670Q4018 652 4018 619Q4018 579 3992 555Q3966 532 3923 532ZM4103 221Q4116 221 4123 208Q4131 196 4131 177Q4131 154 4124 141Q4117 128 4102 118Q4032 72 3915 -9Q3876 -217 3814 -336Q3752 -455 3656 -455Q3604 -455 3572 -424Q3541 -392 3541 -341Q3541 -270 3596 -190Q3651 -109 3803 9L3810 60Q3824 156 3832 249Q3838 303 3851 410Q3855 439 3873 452Q3891 466 3928 466Q3958 466 3967 457Q3977 448 3977 432Q3977 386 3944 178L3934 109Q4014 169 4080 213Q4093 221 4103 221ZM3667 -358Q3693 -358 3724 -299Q3755 -240 3782 -109Q3706 -174 3672 -227Q3639 -279 3639 -319Q3639 -358 3667 -358ZM4516 223Q4529 223 4536 211Q4544 199 4544 178Q4544 138 4525 116Q4488 71 4420 33Q4353 -5 4276 -5Q4171 -5 4113 52Q4055 109 4055 208Q4055 277 4084 336Q4113 396 4164 431Q4216 466 4281 466Q4339 466 4374 431Q4409 397 4409 338Q4409 269 4359 219Q4310 170 4192 141Q4217 95 4287 95Q4332 95 4389 126Q4447 158 4489 209Q4501 223 4516 223ZM4264 368Q4227 368 4201 325Q4176 282 4176 221L4176 219Q4235 233 4269 261Q4303 289 4303 326Q4303 345 4292 356Q4282 368 4264 368Z" style="" fill="#8a0059"></path></g></g><g transform="matrix(0.75,0,0,0.75,1843.2002,1187.8401)"><g transform="matrix(1.024,0,0,-1.024,0,0)"><path d="M314 136L314 155Q248 173 201 173Q155 173 125 155Q96 137 96 104Q96 72 115 54Q134 36 167 36Q259 36 314 136ZM394 47L433 47Q443 47 449 40Q456 33 456 23Q456 13 449 6Q443 0 433 0L389 0Q353 0 333 16Q314 32 314 61Q314 66 315 72Q262 -10 161 -10Q105 -10 73 20Q42 50 42 103Q42 157 84 187Q127 218 190 218Q254 218 314 197L314 266Q314 314 279 328Q252 338 204 338Q157 338 117 322L117 259Q117 249 109 242Q101 236 90 236Q79 236 71 242Q63 249 63 259L63 335Q63 348 76 355Q125 384 206 384Q287 384 327 357Q367 331 367 266L367 66Q367 47 394 47ZM479 374L530 374Q593 374 595 306Q649 384 723 384Q765 384 794 368Q808 360 808 347L808 263Q808 253 800 246Q792 240 781 240Q770 240 762 246Q754 253 754 263L754 333Q741 338 715 338Q689 338 656 313Q623 289 599 241L599 13Q599 3 591 -4Q583 -10 572 -10Q561 -10 553 -4Q545 3 545 13L545 308Q545 327 525 327L479 327Q469 327 462 333Q456 340 456 350Q456 360 462 367Q469 374 479 374ZM1157 64Q1165 69 1175 67Q1186 65 1190 58Q1194 52 1194 47Q1194 32 1183 25Q1123 -10 1054 -10Q985 -10 955 18Q925 47 925 113L925 327L869 327Q859 327 852 333Q846 340 846 350Q846 360 852 367Q859 374 869 374L925 374L925 517Q925 527 933 533Q941 540 952 540Q963 540 971 533Q979 527 979 517L979 374L1147 374Q1157 374 1163 367Q1170 360 1170 350Q1170 340 1163 333Q1157 327 1147 327L979 327L979 113Q979 71 996 53Q1014 36 1061 36Q1109 36 1157 64Z" style="" fill="#8a0059"></path></g></g></g></svg>